# xmcd CD database file
#
# Track frame offsets:
#	150
#	13136
#	25350
#	37840
#	53735
#	66578
#	80489
#	89852
#	102053
#	115466
#	128092
#	142057
#	152999
#	165695
#	178074
#	190227
#	203587
#	216260
#	227821
#	242224
#
# Disc length: 3395 seconds
#
# Revision: 1
# Processed by: cddbd v1.5.2PL0 Copyright (c) Steve Scherf et al.
# Submitted via: CDex 1.51
#
DISCID=260d4114
DTITLE=Sonny Terry - The Story Of The Blues - Chapter 09 [CD2]
DYEAR=1900
DGENRE=Blues
TTITLE0=Blowing the blues
TTITLE1=Bus rider blues
TTITLE2=Precious lord
TTITLE3=Lonesome train
TTITLE4=Shake down blues
TTITLE5=Sweet woman
TTITLE6=Fox chase
TTITLE7=Whoopin' the blues
TTITLE8=Leavin' blues
TTITLE9=Riff and harmonica jump
TTITLE10=All alone blues
TTITLE11=Harmonica rag
TTITLE12=Screamin' and cryin' blues
TTITLE13=Beer garden blues
TTITLE14=Worried man blues
TTITLE15=Custard pie blues
TTITLE16=Early morning blues
TTITLE17=Crow Jane blues
TTITLE18=Hot headed woman
TTITLE19=Airplane blues
EXTD=
EXTT0=
EXTT1=
EXTT2=
EXTT3=
EXTT4=
EXTT5=
EXTT6=
EXTT7=
EXTT8=
EXTT9=
EXTT10=
EXTT11=
EXTT12=
EXTT13=
EXTT14=
EXTT15=
EXTT16=
EXTT17=
EXTT18=
EXTT19=
PLAYORDER=
